<mxfile host="app.diagrams.net" modified="2021-09-03T09:00:24.092Z" agent="5.0 (Windows NT 10.0; Win64; x64) AppleWebKit/537.36 (KHTML, like Gecko) Chrome/92.0.4515.159 Safari/537.36" etag="fFwvxWkCksgwEkr0kWK7" version="15.0.6" type="github">
  <diagram id="2Kxqgk4YQ3BK2at1uDBS" name="Page-1">
    <mxGraphModel dx="782" dy="379" grid="1" gridSize="10" guides="1" tooltips="1" connect="1" arrows="1" fold="1" page="1" pageScale="1" pageWidth="827" pageHeight="1169" math="0" shadow="0">
      <root>
        <mxCell id="0" />
        <mxCell id="1" parent="0" />
        <mxCell id="uTOlh8sTB7G8Z9NEcVTo-3" value="&lt;b&gt;&lt;font style=&quot;font-size: 15px&quot;&gt;React Frontend App&lt;/font&gt;&lt;/b&gt;" style="rounded=1;whiteSpace=wrap;html=1;" vertex="1" parent="1">
          <mxGeometry x="140" y="120" width="460" height="320" as="geometry" />
        </mxCell>
        <mxCell id="uTOlh8sTB7G8Z9NEcVTo-10" value="&lt;b&gt;Router&lt;/b&gt;" style="rounded=1;whiteSpace=wrap;html=1;" vertex="1" parent="1">
          <mxGeometry x="160" y="180" width="120" height="60" as="geometry" />
        </mxCell>
        <mxCell id="uTOlh8sTB7G8Z9NEcVTo-11" value="&lt;b&gt;Components&lt;/b&gt;" style="rounded=1;whiteSpace=wrap;html=1;" vertex="1" parent="1">
          <mxGeometry x="300" y="180" width="120" height="60" as="geometry" />
        </mxCell>
        <mxCell id="uTOlh8sTB7G8Z9NEcVTo-12" value="&lt;b&gt;Services&lt;/b&gt;" style="rounded=1;whiteSpace=wrap;html=1;" vertex="1" parent="1">
          <mxGeometry x="440" y="180" width="120" height="60" as="geometry" />
        </mxCell>
        <mxCell id="uTOlh8sTB7G8Z9NEcVTo-13" value="&lt;b&gt;Fetch API/Axios library&lt;/b&gt;" style="rounded=1;whiteSpace=wrap;html=1;" vertex="1" parent="1">
          <mxGeometry x="210" y="300" width="300" height="60" as="geometry" />
        </mxCell>
        <mxCell id="uTOlh8sTB7G8Z9NEcVTo-14" value="" style="shape=flexArrow;endArrow=classic;html=1;" edge="1" parent="1">
          <mxGeometry width="50" height="50" relative="1" as="geometry">
            <mxPoint x="268" y="360" as="sourcePoint" />
            <mxPoint x="268" y="498" as="targetPoint" />
          </mxGeometry>
        </mxCell>
        <mxCell id="uTOlh8sTB7G8Z9NEcVTo-15" value="" style="shape=flexArrow;endArrow=classic;html=1;exitX=0.523;exitY=0;exitDx=0;exitDy=0;exitPerimeter=0;" edge="1" parent="1" source="uTOlh8sTB7G8Z9NEcVTo-16">
          <mxGeometry width="50" height="50" relative="1" as="geometry">
            <mxPoint x="380.5" y="487" as="sourcePoint" />
            <mxPoint x="380.5" y="360" as="targetPoint" />
            <Array as="points">
              <mxPoint x="379.5" y="400" />
              <mxPoint x="379.5" y="390" />
            </Array>
          </mxGeometry>
        </mxCell>
        <mxCell id="uTOlh8sTB7G8Z9NEcVTo-16" value="&lt;b&gt;Spring Boot Backend App&lt;/b&gt;" style="rounded=1;whiteSpace=wrap;html=1;" vertex="1" parent="1">
          <mxGeometry x="140" y="490" width="460" height="300" as="geometry" />
        </mxCell>
        <mxCell id="uTOlh8sTB7G8Z9NEcVTo-18" value="&lt;b&gt;Spring REST Controller&lt;/b&gt;" style="rounded=1;whiteSpace=wrap;html=1;" vertex="1" parent="1">
          <mxGeometry x="180" y="540" width="350" height="60" as="geometry" />
        </mxCell>
        <mxCell id="uTOlh8sTB7G8Z9NEcVTo-19" value="&lt;b&gt;Model&lt;/b&gt;" style="rounded=1;whiteSpace=wrap;html=1;" vertex="1" parent="1">
          <mxGeometry x="180" y="710" width="120" height="60" as="geometry" />
        </mxCell>
        <mxCell id="uTOlh8sTB7G8Z9NEcVTo-20" value="&lt;b&gt;Service&lt;/b&gt;" style="rounded=1;whiteSpace=wrap;html=1;" vertex="1" parent="1">
          <mxGeometry x="320" y="710" width="120" height="60" as="geometry" />
        </mxCell>
        <mxCell id="uTOlh8sTB7G8Z9NEcVTo-21" value="&lt;b&gt;DAO&lt;br&gt;&lt;/b&gt;(&lt;b&gt;Repository&lt;/b&gt;)" style="rounded=1;whiteSpace=wrap;html=1;" vertex="1" parent="1">
          <mxGeometry x="450" y="710" width="120" height="60" as="geometry" />
        </mxCell>
        <mxCell id="uTOlh8sTB7G8Z9NEcVTo-22" style="edgeStyle=orthogonalEdgeStyle;rounded=0;orthogonalLoop=1;jettySize=auto;html=1;exitX=0.5;exitY=1;exitDx=0;exitDy=0;" edge="1" parent="1" source="uTOlh8sTB7G8Z9NEcVTo-16" target="uTOlh8sTB7G8Z9NEcVTo-16">
          <mxGeometry relative="1" as="geometry" />
        </mxCell>
        <mxCell id="uTOlh8sTB7G8Z9NEcVTo-29" value="" style="html=1;shadow=0;dashed=0;align=center;verticalAlign=middle;shape=mxgraph.arrows2.twoWayArrow;dy=0.6;dx=35;" vertex="1" parent="1">
          <mxGeometry x="570" y="720" width="140" height="60" as="geometry" />
        </mxCell>
        <mxCell id="uTOlh8sTB7G8Z9NEcVTo-30" value="&lt;b&gt;My SQL&lt;br&gt;Database&lt;/b&gt;" style="shape=cylinder3;whiteSpace=wrap;html=1;boundedLbl=1;backgroundOutline=1;size=15;" vertex="1" parent="1">
          <mxGeometry x="710" y="710" width="80" height="90" as="geometry" />
        </mxCell>
        <mxCell id="uTOlh8sTB7G8Z9NEcVTo-31" value="&lt;b&gt;&lt;font style=&quot;font-size: 14px&quot;&gt;Architecture diagram&lt;/font&gt;&lt;/b&gt;" style="text;html=1;align=center;verticalAlign=middle;resizable=0;points=[];autosize=1;strokeColor=none;fillColor=none;" vertex="1" parent="1">
          <mxGeometry x="290" y="830" width="160" height="20" as="geometry" />
        </mxCell>
      </root>
    </mxGraphModel>
  </diagram>
</mxfile>
